<svg width="18" height="14" viewBox="0 0 18 14" fill="none" xmlns="http://www.w3.org/2000/svg">
<path d="M16.087 2.14498H13.247L11.547 0.42898C11.547 0.42898 11.539 0.420977 11.534 0.420977L11.526 0.412981C11.3981 0.282746 11.2456 0.179247 11.0774 0.108515C10.9092 0.0377825 10.7285 0.0012276 10.546 0.000978635H7.013C6.81795 0.000641959 6.625 0.0413328 6.44669 0.120409C6.26838 0.199486 6.1087 0.315179 5.978 0.459978L4.31601 2.14298H1.416C1.2309 2.14086 1.04721 2.17548 0.875564 2.24483C0.703923 2.31418 0.547737 2.41687 0.416049 2.54698C0.284361 2.67708 0.179785 2.83202 0.108371 3.00281C0.036957 3.1736 0.000123322 3.35686 3.18334e-06 3.54198V12.042C-0.000391147 12.2279 0.0358533 12.412 0.106662 12.5839C0.177471 12.7558 0.281455 12.9121 0.412677 13.0438C0.543899 13.1755 0.699784 13.28 0.871425 13.3514C1.04307 13.4228 1.2271 13.4597 1.413 13.46H16.087C16.4623 13.4589 16.8218 13.309 17.0867 13.0432C17.3516 12.7773 17.5003 12.4173 17.5 12.042V3.54198C17.4996 3.35728 17.4627 3.17449 17.3913 3.00413C17.32 2.83377 17.2156 2.6792 17.0843 2.54935C16.953 2.41949 16.7972 2.31691 16.6261 2.24751C16.4549 2.17811 16.2717 2.14326 16.087 2.14498ZM8.75 11.337C7.97811 11.3396 7.22281 11.113 6.57975 10.686C5.93669 10.2591 5.43479 9.65087 5.13762 8.93847C4.84044 8.22607 4.76135 7.44151 4.91036 6.68413C5.05937 5.92675 5.42978 5.23062 5.97469 4.68389C6.51959 4.13717 7.21448 3.76443 7.97136 3.61289C8.72824 3.46136 9.51306 3.53782 10.2265 3.83262C10.9398 4.12742 11.5497 4.62728 11.9788 5.26891C12.4079 5.91054 12.637 6.66508 12.637 7.43698C12.637 8.46907 12.2279 9.45909 11.4993 10.1901C10.7707 10.9211 9.78209 11.3335 8.75 11.337ZM15.822 4.39598C15.7045 4.39678 15.5895 4.36267 15.4915 4.29799C15.3934 4.23331 15.3168 4.14098 15.2713 4.03269C15.2258 3.92441 15.2135 3.80505 15.2359 3.68976C15.2583 3.57447 15.3145 3.46844 15.3973 3.3851C15.48 3.30177 15.5857 3.24489 15.7008 3.22168C15.816 3.19847 15.9354 3.20998 16.044 3.25475C16.1526 3.29951 16.2454 3.37551 16.3108 3.47312C16.3761 3.57072 16.411 3.68553 16.411 3.80298C16.4117 3.88089 16.3969 3.95817 16.3677 4.03037C16.3384 4.10258 16.2952 4.1683 16.2404 4.22376C16.1857 4.27923 16.1206 4.32334 16.0488 4.35358C15.977 4.38382 15.8999 4.39959 15.822 4.39998V4.39598Z" fill="#212E3F"/>
<path d="M8.74991 4.49696C8.16706 4.49518 7.5968 4.66639 7.11131 4.98891C6.62582 5.31142 6.24695 5.77075 6.02267 6.30871C5.79839 6.84668 5.73878 7.4391 5.85139 8.01097C5.96401 8.58284 6.24378 9.10843 6.65529 9.52119C7.06679 9.93396 7.59152 10.2153 8.16304 10.3297C8.73456 10.4441 9.32716 10.3863 9.86581 10.1636C10.4045 9.94102 10.8649 9.56355 11.1889 9.07905C11.5129 8.59456 11.6859 8.02482 11.6859 7.44197C11.6868 7.05573 11.6116 6.67309 11.4645 6.31596C11.3173 5.95883 11.1013 5.6342 10.8286 5.36067C10.5559 5.08714 10.2319 4.87005 9.87523 4.72185C9.51855 4.57364 9.13615 4.49722 8.74991 4.49696Z" fill="#212E3F"/>
</svg>
