<svg width="13" height="8" viewBox="0 0 13 8" fill="none" xmlns="http://www.w3.org/2000/svg">
<path d="M6.00093 5.65733L10.6681 1.08323C10.7257 1.02805 10.8019 0.997801 10.8809 0.998868C10.9598 0.999934 11.0352 1.03223 11.0913 1.08895L11.9113 1.90576C11.9393 1.93299 11.9618 1.96566 11.9772 2.00185C11.9927 2.03804 12.001 2.07702 12.0015 2.11651C12.002 2.156 11.9948 2.19519 11.9803 2.2318C11.9658 2.2684 11.9442 2.30168 11.9169 2.32967L6.21853 7.91497C6.19016 7.94355 6.15615 7.96563 6.11877 7.97972C6.08138 7.9938 6.04148 7.99958 6.00173 7.99666C5.96208 7.99853 5.92246 7.99228 5.88522 7.97825C5.84798 7.96422 5.81388 7.94269 5.78493 7.91497L0.0865285 2.32967C0.0592415 2.30168 0.0377052 2.2684 0.0231862 2.2318C0.00866719 2.19519 0.00145789 2.156 0.00197954 2.11651C0.00250119 2.07702 0.0107451 2.03804 0.0262258 2.00185C0.0417064 1.96566 0.064112 1.93299 0.0921285 1.90576L0.912127 1.08895C0.968211 1.03223 1.04366 0.999934 1.1226 0.998868C1.20153 0.997801 1.27779 1.02805 1.33533 1.08323L6.00093 5.65733Z" fill="#D3DCEC"/>
</svg>
