<svg width="18" height="18" viewBox="0 0 18 18" fill="none" xmlns="http://www.w3.org/2000/svg">
<path fill-rule="evenodd" clip-rule="evenodd" d="M0.716797 14.3518V17.9684H4.32948L14.7881 7.40328L11.1754 3.78668L0.716797 14.3518ZM17.5452 4.64325C17.6353 4.5573 17.707 4.45393 17.756 4.33942C17.805 4.2249 17.8303 4.10161 17.8303 3.97703C17.8303 3.85245 17.805 3.72916 17.756 3.61465C17.707 3.50013 17.6353 3.39676 17.5452 3.31081L15.3585 1.12182C15.2727 1.03163 15.1694 0.959835 15.055 0.910778C14.9406 0.861721 14.8175 0.836426 14.693 0.836426C14.5686 0.836426 14.4454 0.861721 14.3311 0.910778C14.2167 0.959835 14.1134 1.03163 14.0275 1.12182L12.3163 2.83495L15.929 6.45155L17.5418 4.64325H17.5452Z" fill="#212E3F"/>
</svg>
