<svg width="19" height="13" viewBox="0 0 19 13" fill="none" xmlns="http://www.w3.org/2000/svg">
<path d="M12.667 0.166992C12.877 0.166992 13.0785 0.250435 13.227 0.398963C13.3756 0.547492 13.459 0.748941 13.459 0.958992V4.28399L17.586 1.39399C17.6457 1.35388 17.7151 1.33061 17.7869 1.32663C17.8587 1.32265 17.9303 1.33811 17.9941 1.37138C18.0578 1.40464 18.1114 1.45449 18.1493 1.51566C18.1871 1.57684 18.2077 1.64708 18.209 1.71899V11.282C18.2077 11.3539 18.1871 11.4241 18.1493 11.4853C18.1114 11.5465 18.0578 11.5963 17.9941 11.6296C17.9303 11.6629 17.8587 11.6783 17.7869 11.6743C17.7151 11.6704 17.6457 11.6471 17.586 11.607L13.459 8.71699V12.042C13.459 12.252 13.3756 12.4535 13.227 12.602C13.0785 12.7505 12.877 12.834 12.667 12.834H1.58399C1.37394 12.834 1.17249 12.7505 1.02396 12.602C0.875435 12.4535 0.791992 12.252 0.791992 12.042V0.958992C0.791992 0.748941 0.875435 0.547492 1.02396 0.398963C1.17249 0.250435 1.37394 0.166992 1.58399 0.166992H12.667ZM5.85899 3.98999C5.78611 3.9901 5.71549 4.01532 5.65903 4.0614C5.60257 4.10748 5.56371 4.17161 5.54899 4.24299L5.54299 4.30499V8.69199C5.54243 8.74357 5.55446 8.7945 5.57804 8.84037C5.60162 8.88624 5.63604 8.92567 5.67831 8.95523C5.72058 8.98478 5.76942 9.00358 5.8206 9.00999C5.87177 9.0164 5.92374 9.01022 5.97199 8.99199L6.02999 8.96399L9.47699 6.76699C9.51718 6.74122 9.55102 6.70671 9.57601 6.66603C9.60099 6.62535 9.61646 6.57956 9.62127 6.53206C9.62607 6.48457 9.62009 6.4366 9.60377 6.39174C9.58744 6.34688 9.5612 6.30629 9.52699 6.27299L9.47699 6.23299L6.02899 4.03799C5.97791 4.00656 5.91896 3.98926 5.85899 3.98999Z" fill="#212E3F"/>
</svg>
