<svg width="14" height="20" viewBox="0 0 14 20" fill="none" xmlns="http://www.w3.org/2000/svg">
<path d="M7.25892 0.876953C5.51706 0.877218 3.84661 1.56929 2.61493 2.80097C1.38325 4.03265 0.691183 5.70309 0.690918 7.44495C0.690918 12.371 7.25892 19.645 7.25892 19.645C7.25892 19.645 13.8269 12.374 13.8269 7.44495C13.8267 5.70309 13.1346 4.03265 11.9029 2.80097C10.6712 1.56929 9.00078 0.877218 7.25892 0.876953ZM7.25892 9.78995C6.79492 9.78995 6.34135 9.65236 5.95555 9.39458C5.56975 9.1368 5.26906 8.7704 5.0915 8.34173C4.91393 7.91305 4.86747 7.44135 4.958 6.98627C5.04852 6.53119 5.27195 6.11317 5.60005 5.78508C5.92814 5.45699 6.34616 5.23355 6.80124 5.14303C7.25631 5.05251 7.72802 5.09897 8.15669 5.27653C8.58537 5.4541 8.95176 5.75479 9.20955 6.14058C9.46733 6.52638 9.60492 6.97996 9.60492 7.44395C9.60492 8.06615 9.35775 8.66286 8.91779 9.10283C8.47783 9.54279 7.88112 9.78995 7.25892 9.78995Z" fill="#212E3F"/>
</svg>
