<svg width="25" height="25" viewBox="0 0 25 25" fill="none" xmlns="http://www.w3.org/2000/svg">
<path d="M12.9125 2.7375C13.4625 2.4625 13.7375 1.775 13.6 1.225C13.4625 0.675 12.775 0.125 12.0875 0.125C5.35 0.2625 0.125 5.7625 0.125 12.5C0.125 19.375 5.625 24.875 12.5 24.875C17.725 24.875 22.2625 21.575 24.05 16.7625C24.325 16.2125 24.05 15.525 23.5 15.1125C22.95 14.7 22.2625 14.8375 21.85 15.25C20.475 16.4875 18.6875 17.175 16.7625 17.175C12.5 17.175 8.925 13.7375 8.925 9.3375C8.925 6.725 10.4375 4.1125 12.9125 2.7375ZM16.7625 19.925C17.45 19.925 18.1375 19.925 18.6875 19.7875C17.0375 21.3 14.8375 22.125 12.5 22.125C7.1375 22.125 2.875 17.8625 2.875 12.5C2.875 9.0625 4.8 5.9 7.6875 4.25C6.725 5.7625 6.3125 7.55 6.3125 9.475C6.175 15.25 10.9875 19.925 16.7625 19.925Z" fill="#D3DCEC"/>
</svg>
