<svg width="33" height="33" viewBox="0 0 33 33" fill="none" xmlns="http://www.w3.org/2000/svg">
<path d="M30.2192 14.2717H18.9406V2.98083C18.9406 2.38191 18.7029 1.80751 18.2799 1.38401C17.8568 0.960502 17.283 0.72258 16.6848 0.72258C16.0865 0.72258 15.5127 0.960502 15.0897 1.38401C14.6666 1.80751 14.429 2.38191 14.429 2.98083V14.2717H3.15034C2.55206 14.2717 1.97829 14.5096 1.55524 14.9331C1.1322 15.3566 0.894531 15.931 0.894531 16.5299C0.894531 17.1288 1.1322 17.7032 1.55524 18.1267C1.97829 18.5502 2.55206 18.7882 3.15034 18.7882H14.429V30.079C14.429 30.6779 14.6666 31.2523 15.0897 31.6758C15.5127 32.0993 16.0865 32.3372 16.6848 32.3372C17.283 32.3372 17.8568 32.0993 18.2799 31.6758C18.7029 31.2523 18.9406 30.6779 18.9406 30.079V18.7882H30.2192C30.8175 18.7882 31.3912 18.5502 31.8143 18.1267C32.2373 17.7032 32.475 17.1288 32.475 16.5299C32.475 15.931 32.2373 15.3566 31.8143 14.9331C31.3912 14.5096 30.8175 14.2717 30.2192 14.2717Z" fill="#D3DCEC"/>
</svg>
