<svg width="15" height="15" viewBox="0 0 15 15" fill="none" xmlns="http://www.w3.org/2000/svg">
<path d="M14.2771 12.5979L11.2626 9.58347C11.8854 8.64475 12.25 7.52078 12.25 6.3125C12.25 3.03856 9.58644 0.375 6.3125 0.375C3.03856 0.375 0.375 3.03856 0.375 6.3125C0.375 9.58644 3.03856 12.25 6.3125 12.25C7.52078 12.25 8.64475 11.8854 9.58347 11.2626L12.5979 14.2771C13.0611 14.7408 13.8139 14.7408 14.2771 14.2771C14.7408 13.8133 14.7408 13.0617 14.2771 12.5979ZM2.15625 6.3125C2.15625 4.02063 4.02063 2.15625 6.3125 2.15625C8.60437 2.15625 10.4688 4.02063 10.4688 6.3125C10.4688 8.60437 8.60437 10.4688 6.3125 10.4688C4.02063 10.4688 2.15625 8.60437 2.15625 6.3125Z" fill="#FF8D03"/>
</svg>
