<svg width="19" height="19" viewBox="0 0 19 19" fill="none" xmlns="http://www.w3.org/2000/svg">
<path d="M9.78464 11.4345C12.2373 11.4345 14.2255 9.04859 14.2255 6.10542C14.2255 3.16226 12.2373 0.776352 9.78464 0.776352C7.332 0.776352 5.34375 3.16226 5.34375 6.10542C5.34375 9.04859 7.332 11.4345 9.78464 11.4345Z" fill="#D3DCEC"/>
<path d="M18.4884 15.9642C17.563 14.2479 16.0491 12.9232 14.2251 12.2339C13.967 12.1371 13.6916 12.095 13.4164 12.1103C13.1412 12.1255 12.8722 12.1979 12.6264 12.3227C11.7705 12.8454 10.7871 13.122 9.78421 13.122C8.78134 13.122 7.79789 12.8454 6.94204 12.3227C6.68991 12.2126 6.41778 12.1558 6.14268 12.1558C5.86758 12.1558 5.59545 12.2126 5.34332 12.3227C3.51933 13.0121 2.00548 14.3367 1.08006 16.053C0.953017 16.3276 0.899175 16.6303 0.923775 16.9319C0.948375 17.2334 1.05058 17.5234 1.22045 17.7738C1.39032 18.0241 1.62208 18.2262 1.89319 18.3605C2.1643 18.4947 2.46553 18.5566 2.7676 18.5399H16.8008C17.1103 18.5513 17.4176 18.4826 17.6927 18.3404C17.9679 18.1982 18.2016 17.9873 18.3714 17.7282C18.5411 17.4692 18.6411 17.1706 18.6616 16.8616C18.6821 16.5525 18.6224 16.2434 18.4884 15.9642Z" fill="#D3DCEC"/>
</svg>
