<svg width="144" height="144" viewBox="0 0 144 144" fill="none" xmlns="http://www.w3.org/2000/svg">
<path d="M72 0C32.4 0 0 32.4 0 72C0 111.6 32.4 144 72 144C111.6 144 144 111.6 144 72C144 32.4 111.6 0 72 0ZM72 24C85.2 24 96 37.2 96 54C96 70.8 85.2 84 72 84C58.8 84 48 70.8 48 54C48 37.2 58.8 24 72 24ZM111.6 117C101.4 126 87 132 72 132C57 132 42.6 126 32.4 117C30 114.6 29.4 111 31.8 108.6C38.4 100.8 47.4 95.4 57 92.4C61.8 94.8 66.6 96 72 96C77.4 96 82.2 94.8 87 92.4C97.2 95.4 105.6 100.8 112.2 108.6C114.6 111 114.6 114.6 111.6 117Z" fill="#495A79"/>
</svg>
