<svg width="18" height="16" viewBox="0 0 18 16" fill="none" xmlns="http://www.w3.org/2000/svg">
<path d="M8.75 0C8.75 0 3.337 4.673 0.312001 7.2C0.215449 7.28424 0.137755 7.3879 0.0839931 7.50422C0.030231 7.62053 0.0016103 7.74687 5.72792e-07 7.875C-0.000131017 7.98994 0.0224117 8.10378 0.0663379 8.21C0.110264 8.31622 0.174711 8.41273 0.255989 8.49401C0.337266 8.57529 0.433778 8.63974 0.539997 8.68366C0.646216 8.72759 0.760057 8.75013 0.875001 8.75H2.625V14.875C2.62487 14.9899 2.64741 15.1038 2.69134 15.21C2.73526 15.3162 2.79971 15.4127 2.88099 15.494C2.96227 15.5753 3.05878 15.6397 3.165 15.6837C3.27122 15.7276 3.38506 15.7501 3.5 15.75H6.125C6.35706 15.75 6.57962 15.6578 6.74372 15.4937C6.90781 15.3296 7 15.1071 7 14.875V11.375H10.5V14.875C10.5 15.1071 10.5922 15.3296 10.7563 15.4937C10.9204 15.6578 11.1429 15.75 11.375 15.75H14C14.1149 15.7501 14.2288 15.7276 14.335 15.6837C14.4412 15.6397 14.5377 15.5753 14.619 15.494C14.7003 15.4127 14.7647 15.3162 14.8087 15.21C14.8526 15.1038 14.8751 14.9899 14.875 14.875V8.75H16.625C16.7399 8.75013 16.8538 8.72759 16.96 8.68366C17.0662 8.63974 17.1627 8.57529 17.244 8.49401C17.3253 8.41273 17.3897 8.31622 17.4337 8.21C17.4776 8.10378 17.5001 7.98994 17.5 7.875C17.4988 7.74491 17.4681 7.61679 17.41 7.50036C17.352 7.38393 17.2682 7.28224 17.165 7.203C14.161 4.673 8.75 0 8.75 0Z" fill="#212E3F"/>
</svg>
