<svg width="18" height="15" viewBox="0 0 18 15" fill="none" xmlns="http://www.w3.org/2000/svg">
<path d="M16.2 0H1.8C1.32302 0.00131947 0.865945 0.191385 0.528665 0.528665C0.191385 0.865945 0.00131947 1.32302 0 1.8L0 12.6C0.00131947 13.077 0.191385 13.5341 0.528665 13.8713C0.865945 14.2086 1.32302 14.3987 1.8 14.4H16.2C16.677 14.3987 17.1341 14.2086 17.4713 13.8713C17.8086 13.5341 17.9987 13.077 18 12.6V1.8C17.9987 1.32302 17.8086 0.865945 17.4713 0.528665C17.1341 0.191385 16.677 0.00131947 16.2 0ZM16.2 12.6H1.8V1.8H16.2V12.6ZM8.1 9.09H3.6V10.71H8.1V9.09ZM8.1 6.39H3.6V8.01H8.1V6.39ZM8.1 3.69H3.6V5.31H8.1V3.69ZM14.31 9.45C14.31 9.45 12.78 9.05 12.78 8.264C12.78 7.515 13.77 7.2 13.77 5.67C13.77 4.427 13.392 3.69 12.15 3.69C10.908 3.69 10.53 4.427 10.53 5.67C10.53 7.2 11.52 7.515 11.52 8.264C11.52 9.05 9.99 9.45 9.99 9.45C9.91531 9.86561 9.88514 10.288 9.9 10.71H14.4C14.4149 10.288 14.3847 9.86561 14.31 9.45Z" fill="#212E3F"/>
</svg>
