<svg width="25" height="24" viewBox="0 0 25 24" fill="none" xmlns="http://www.w3.org/2000/svg">
<path d="M5.54568 13.219H16.6877C16.8838 13.2241 17.0789 13.1899 17.2615 13.1184C17.4441 13.0469 17.6106 12.9396 17.7511 12.8027C17.8916 12.6658 18.0033 12.5022 18.0795 12.3215C18.1557 12.1408 18.195 11.9466 18.195 11.7505C18.195 11.5544 18.1557 11.3602 18.0795 11.1795C18.0033 10.9988 17.8916 10.8352 17.7511 10.6983C17.6106 10.5614 17.4441 10.4541 17.2615 10.3826C17.0789 10.3111 16.8838 10.2769 16.6877 10.282H5.54568L7.44568 8.382C7.58691 8.24671 7.69971 8.08459 7.77745 7.90514C7.85519 7.72569 7.89632 7.53252 7.89842 7.33696C7.90052 7.1414 7.86356 6.94739 7.78969 6.76631C7.71582 6.58523 7.60653 6.42072 7.46825 6.28243C7.32996 6.14415 7.16545 6.03486 6.98437 5.96099C6.80329 5.88712 6.60928 5.85016 6.41372 5.85226C6.21816 5.85436 6.025 5.89549 5.84554 5.97323C5.66609 6.05097 5.50397 6.16377 5.36868 6.305L0.961685 10.712C0.825228 10.8483 0.716978 11.0102 0.643121 11.1884C0.569265 11.3666 0.53125 11.5576 0.53125 11.7505C0.53125 11.9434 0.569265 12.1344 0.643121 12.3126C0.716978 12.4908 0.825228 12.6527 0.961685 12.789L5.36868 17.195C5.50397 17.3362 5.66609 17.449 5.84554 17.5268C6.025 17.6045 6.21816 17.6456 6.41372 17.6477C6.60928 17.6498 6.80329 17.6129 6.98437 17.539C7.16545 17.4651 7.32996 17.3558 7.46825 17.2176C7.60653 17.0793 7.71582 16.9148 7.78969 16.7337C7.86356 16.5526 7.90052 16.3586 7.89842 16.163C7.89632 15.9675 7.85519 15.7743 7.77745 15.5949C7.69971 15.4154 7.58691 15.2533 7.44568 15.118L5.54568 13.219Z" fill="#212E3F"/>
<path d="M22.5637 3.40863e-07H10.8137C10.6208 -0.00013114 10.4297 0.0377759 10.2514 0.111554C10.0731 0.185331 9.91113 0.293532 9.77469 0.429967C9.63826 0.566403 9.53006 0.728396 9.45628 0.906683C9.3825 1.08497 9.3446 1.27605 9.34473 1.469V4.406C9.34473 4.7956 9.4995 5.16925 9.77499 5.44474C10.0505 5.72023 10.4241 5.875 10.8137 5.875C11.2033 5.875 11.577 5.72023 11.8525 5.44474C12.128 5.16925 12.2827 4.7956 12.2827 4.406V2.937H21.0947V20.563H12.2817V19.094C12.2717 18.7112 12.1126 18.3474 11.8383 18.0801C11.564 17.8129 11.1962 17.6633 10.8132 17.6633C10.4303 17.6633 10.0624 17.8129 9.78812 18.0801C9.51382 18.3474 9.35472 18.7112 9.34473 19.094V22.032C9.34473 22.2249 9.38273 22.4158 9.45657 22.594C9.5304 22.7722 9.63863 22.9341 9.77505 23.0704C9.91147 23.2067 10.0734 23.3148 10.2516 23.3885C10.4299 23.4623 10.6209 23.5001 10.8137 23.5H22.5637C22.7567 23.5001 22.9478 23.4622 23.126 23.3884C23.3043 23.3147 23.4663 23.2065 23.6028 23.07C23.7392 22.9336 23.8474 22.7716 23.9212 22.5933C23.995 22.415 24.0329 22.2239 24.0327 22.031V1.469C24.0329 1.27605 23.995 1.08497 23.9212 0.906683C23.8474 0.728396 23.7392 0.566403 23.6028 0.429967C23.4663 0.293532 23.3043 0.185331 23.126 0.111554C22.9478 0.0377759 22.7567 -0.00013114 22.5637 3.40863e-07Z" fill="#212E3F"/>
</svg>
