<svg width="18" height="14" viewBox="0 0 18 14" fill="none" xmlns="http://www.w3.org/2000/svg">
<path d="M16.087 2.14501H13.247L11.547 0.429011C11.547 0.429011 11.539 0.421007 11.534 0.421007L11.526 0.413012C11.3981 0.282777 11.2456 0.179278 11.0774 0.108545C10.9092 0.037813 10.7285 0.00125812 10.546 0.00100915H7.013C6.81795 0.000672476 6.625 0.0413634 6.44669 0.12044C6.26838 0.199516 6.1087 0.315209 5.978 0.460009L4.31601 2.14301H1.416C1.2309 2.14089 1.04721 2.17551 0.875564 2.24486C0.703923 2.31421 0.547737 2.4169 0.416049 2.54701C0.284361 2.67711 0.179785 2.83205 0.108371 3.00284C0.036957 3.17363 0.000123322 3.35689 3.18334e-06 3.54201V12.042C-0.000391147 12.2279 0.0358533 12.4121 0.106662 12.584C0.177471 12.7559 0.281455 12.9121 0.412677 13.0438C0.543899 13.1755 0.699784 13.28 0.871425 13.3514C1.04307 13.4229 1.2271 13.4597 1.413 13.46H16.087C16.4623 13.4589 16.8218 13.3091 17.0867 13.0432C17.3516 12.7774 17.5003 12.4173 17.5 12.042V3.54201C17.4996 3.35731 17.4627 3.17452 17.3913 3.00416C17.32 2.8338 17.2156 2.67923 17.0843 2.54938C16.953 2.41952 16.7972 2.31694 16.6261 2.24754C16.4549 2.17814 16.2717 2.14329 16.087 2.14501ZM8.75 11.337C7.97811 11.3396 7.22281 11.113 6.57975 10.6861C5.93669 10.2591 5.43479 9.6509 5.13762 8.9385C4.84044 8.2261 4.76135 7.44154 4.91036 6.68416C5.05937 5.92678 5.42978 5.23065 5.97469 4.68392C6.51959 4.1372 7.21448 3.76446 7.97136 3.61292C8.72824 3.46139 9.51306 3.53786 10.2265 3.83265C10.9398 4.12745 11.5497 4.62731 11.9788 5.26894C12.4079 5.91057 12.637 6.66511 12.637 7.43701C12.637 8.4691 12.2279 9.45912 11.4993 10.1901C10.7707 10.9212 9.78209 11.3336 8.75 11.337ZM15.822 4.39601C15.7045 4.39681 15.5895 4.3627 15.4915 4.29802C15.3934 4.23335 15.3168 4.14101 15.2713 4.03272C15.2258 3.92444 15.2135 3.80508 15.2359 3.68979C15.2583 3.5745 15.3145 3.46847 15.3973 3.38513C15.48 3.3018 15.5857 3.24492 15.7008 3.22171C15.816 3.19851 15.9354 3.21002 16.044 3.25478C16.1526 3.29954 16.2454 3.37554 16.3108 3.47315C16.3761 3.57075 16.411 3.68556 16.411 3.80301C16.4117 3.88092 16.3969 3.9582 16.3677 4.03041C16.3384 4.10261 16.2952 4.16833 16.2404 4.22379C16.1857 4.27926 16.1206 4.32337 16.0488 4.35361C15.977 4.38385 15.8999 4.39962 15.822 4.40001V4.39601Z" fill="#D3DCEC"/>
<path d="M8.74991 4.49699C8.16706 4.49521 7.5968 4.66642 7.11131 4.98894C6.62582 5.31145 6.24695 5.77078 6.02267 6.30874C5.79839 6.84671 5.73878 7.43913 5.85139 8.011C5.96401 8.58287 6.24378 9.10846 6.65529 9.52122C7.06679 9.93399 7.59152 10.2154 8.16304 10.3297C8.73456 10.4441 9.32716 10.3863 9.86581 10.1637C10.4045 9.94105 10.8649 9.56358 11.1889 9.07908C11.5129 8.59459 11.6859 8.02485 11.6859 7.442C11.6868 7.05576 11.6116 6.67313 11.4645 6.31599C11.3173 5.95886 11.1013 5.63424 10.8286 5.3607C10.5559 5.08717 10.2319 4.87008 9.87523 4.72188C9.51855 4.57367 9.13615 4.49725 8.74991 4.49699Z" fill="#D3DCEC"/>
</svg>
