<svg width="14" height="20" viewBox="0 0 14 20" fill="none" xmlns="http://www.w3.org/2000/svg">
<path d="M7.25892 0.877014C5.51706 0.877279 3.84661 1.56935 2.61493 2.80103C1.38325 4.03271 0.691183 5.70315 0.690918 7.44501C0.690918 12.371 7.25892 19.645 7.25892 19.645C7.25892 19.645 13.8269 12.374 13.8269 7.44501C13.8267 5.70315 13.1346 4.03271 11.9029 2.80103C10.6712 1.56935 9.00078 0.877279 7.25892 0.877014ZM7.25892 9.79001C6.79492 9.79001 6.34135 9.65242 5.95555 9.39464C5.56975 9.13686 5.26906 8.77046 5.0915 8.34179C4.91393 7.91311 4.86747 7.44141 4.958 6.98633C5.04852 6.53125 5.27195 6.11324 5.60005 5.78514C5.92814 5.45705 6.34616 5.23361 6.80124 5.14309C7.25631 5.05257 7.72802 5.09903 8.15669 5.27659C8.58537 5.45416 8.95176 5.75485 9.20955 6.14065C9.46733 6.52644 9.60492 6.98002 9.60492 7.44401C9.60492 8.06621 9.35775 8.66293 8.91779 9.10289C8.47783 9.54285 7.88112 9.79001 7.25892 9.79001Z" fill="#D3DCEC"/>
</svg>
    