<svg width="22" height="23" viewBox="0 0 22 23" fill="none" xmlns="http://www.w3.org/2000/svg">
<path d="M11.8625 2.92083C12.3458 2.67917 12.5875 2.075 12.4667 1.59167C12.3458 1.10833 11.7417 0.625 11.1375 0.625C5.21667 0.745833 0.625 5.57917 0.625 11.5C0.625 17.5417 5.45833 22.375 11.5 22.375C16.0917 22.375 20.0792 19.475 21.65 15.2458C21.8917 14.7625 21.65 14.1583 21.1667 13.7958C20.6833 13.4333 20.0792 13.5542 19.7167 13.9167C18.5083 15.0042 16.9375 15.6083 15.2458 15.6083C11.5 15.6083 8.35833 12.5875 8.35833 8.72083C8.35833 6.425 9.6875 4.12917 11.8625 2.92083ZM15.2458 18.025C15.85 18.025 16.4542 18.025 16.9375 17.9042C15.4875 19.2333 13.5542 19.9583 11.5 19.9583C6.7875 19.9583 3.04167 16.2125 3.04167 11.5C3.04167 8.47917 4.73333 5.7 7.27083 4.25C6.425 5.57917 6.0625 7.15 6.0625 8.84167C5.94167 13.9167 10.1708 18.025 15.2458 18.025Z" fill="#D3DCEC"/>
</svg>
