<svg width="19" height="19" viewBox="0 0 19 19" fill="none" xmlns="http://www.w3.org/2000/svg">
<path d="M9.78367 11.4345C12.2363 11.4345 14.2246 9.04859 14.2246 6.10542C14.2246 3.16226 12.2363 0.776352 9.78367 0.776352C7.33103 0.776352 5.34277 3.16226 5.34277 6.10542C5.34277 9.04859 7.33103 11.4345 9.78367 11.4345Z" fill="#D3DCEC"/>
<path d="M18.4879 15.9642C17.5625 14.2479 16.0486 12.9232 14.2246 12.2339C13.9665 12.1371 13.6911 12.095 13.4159 12.1103C13.1407 12.1255 12.8717 12.1979 12.6259 12.3227C11.77 12.8454 10.7866 13.122 9.78372 13.122C8.78085 13.122 7.79741 12.8454 6.94155 12.3227C6.68942 12.2126 6.41729 12.1558 6.14219 12.1558C5.8671 12.1558 5.59496 12.2126 5.34283 12.3227C3.51884 13.0121 2.00499 14.3367 1.07958 16.053C0.952528 16.3276 0.898687 16.6303 0.923287 16.9319C0.947887 17.2334 1.05009 17.5234 1.21996 17.7738C1.38983 18.0241 1.62159 18.2262 1.8927 18.3605C2.16381 18.4947 2.46504 18.5566 2.76712 18.5399H16.8003C17.1099 18.5513 17.4171 18.4826 17.6922 18.3404C17.9674 18.1982 18.2012 17.9873 18.3709 17.7282C18.5406 17.4692 18.6406 17.1706 18.6611 16.8616C18.6816 16.5525 18.6219 16.2434 18.4879 15.9642Z" fill="#D3DCEC"/>
</svg>
