<svg width="19" height="13" viewBox="0 0 19 13" fill="none" xmlns="http://www.w3.org/2000/svg">
<path d="M12.667 0.167007C12.877 0.167007 13.0785 0.25045 13.227 0.398979C13.3756 0.547508 13.459 0.748956 13.459 0.959007V4.28401L17.586 1.39401C17.6457 1.3539 17.7151 1.33063 17.7869 1.32665C17.8587 1.32267 17.9303 1.33813 17.9941 1.37139C18.0578 1.40466 18.1114 1.4545 18.1493 1.51568C18.1871 1.57685 18.2077 1.64709 18.209 1.71901V11.282C18.2077 11.3539 18.1871 11.4242 18.1493 11.4853C18.1114 11.5465 18.0578 11.5964 17.9941 11.6296C17.9303 11.6629 17.8587 11.6783 17.7869 11.6744C17.7151 11.6704 17.6457 11.6471 17.586 11.607L13.459 8.71701V12.042C13.459 12.2521 13.3756 12.4535 13.227 12.602C13.0785 12.7506 12.877 12.834 12.667 12.834H1.58399C1.37394 12.834 1.17249 12.7506 1.02396 12.602C0.875435 12.4535 0.791992 12.2521 0.791992 12.042V0.959007C0.791992 0.748956 0.875435 0.547508 1.02396 0.398979C1.17249 0.25045 1.37394 0.167007 1.58399 0.167007H12.667ZM5.85899 3.99001C5.78611 3.99012 5.71549 4.01533 5.65903 4.06142C5.60257 4.1075 5.56371 4.17163 5.54899 4.24301L5.54299 4.30501V8.69201C5.54243 8.74358 5.55446 8.79451 5.57804 8.84039C5.60162 8.88626 5.63604 8.92568 5.67831 8.95524C5.72058 8.9848 5.76942 9.0036 5.8206 9.01C5.87177 9.01641 5.92374 9.01023 5.97199 8.99201L6.02999 8.96401L9.47699 6.76701C9.51718 6.74124 9.55102 6.70673 9.57601 6.66605C9.60099 6.62537 9.61646 6.57957 9.62127 6.53208C9.62607 6.48459 9.62009 6.43662 9.60377 6.39176C9.58744 6.3469 9.5612 6.30631 9.52699 6.27301L9.47699 6.23301L6.02899 4.03801C5.97791 4.00657 5.91896 3.98928 5.85899 3.99001Z" fill="#D3DCEC"/>
</svg>
